<?xml version="1.0" encoding="utf-8"?>
<!-- Generator: Adobe Illustrator 22.1.0, SVG Export Plug-In . SVG Version: 6.00 Build 0)  -->
<svg version="1.1" id="Capa_1" xmlns="http://www.w3.org/2000/svg" xmlns:xlink="http://www.w3.org/1999/xlink" x="0px" y="0px"
	 viewBox="0 0 245.9 96.7" style="enable-background:new 0 0 245.9 96.7;" xml:space="preserve">
<style type="text/css">
	.st0{fill:#FF4F45;}
</style>
<g>
	<g>
		<path d="M140.6,49.4c0.1,3.4,2.2,4.9,4.8,4.9c1.8,0,2.9-0.3,3.9-0.7l0.4,1.8c-0.9,0.4-2.5,0.9-4.7,0.9c-4.3,0-6.9-2.9-6.9-7.1
			c0-4.3,2.5-7.6,6.6-7.6c4.6,0,5.8,4,5.8,6.6c0,0.5,0,0.9-0.1,1.2H140.6z M148.1,47.5c0-1.6-0.7-4.1-3.5-4.1
			c-2.6,0-3.7,2.4-3.9,4.1H148.1z"/>
		<path d="M156.8,37.9v4h3.7v1.9h-3.7v7.6c0,1.7,0.5,2.7,1.9,2.7c0.7,0,1.1-0.1,1.5-0.2l0.1,1.9c-0.5,0.2-1.3,0.4-2.3,0.4
			c-1.2,0-2.1-0.4-2.8-1.1c-0.7-0.8-1-2-1-3.7v-7.7h-2.2v-1.9h2.2v-3.4L156.8,37.9z"/>
		<path d="M164.8,49.4c0,3.4,2.2,4.9,4.8,4.9c1.8,0,2.9-0.3,3.9-0.7l0.4,1.8c-0.9,0.4-2.5,0.9-4.7,0.9c-4.3,0-6.9-2.9-6.9-7.1
			c0-4.3,2.5-7.6,6.6-7.6c4.6,0,5.8,4,5.8,6.6c0,0.5,0,0.9-0.1,1.2H164.8z M172.3,47.5c0-1.6-0.7-4.1-3.5-4.1
			c-2.6,0-3.7,2.4-3.9,4.1H172.3z"/>
		<path d="M187.9,55.4c-0.7,0.3-2.1,0.8-4,0.8c-4.2,0-7-2.9-7-7.2c0-4.3,2.9-7.5,7.5-7.5c1.5,0,2.9,0.4,3.5,0.7l-0.6,2
			c-0.6-0.3-1.6-0.7-3-0.7c-3.2,0-5,2.4-4.9,5.3c0,3.3,2.1,5.2,4.9,5.2c1.4,0,2.4-0.4,3.1-0.7L187.9,55.4z"/>
		<path d="M193.9,37.9v4h3.7v1.9h-3.7v7.6c0,1.7,0.5,2.7,1.9,2.7c0.7,0,1.1-0.1,1.5-0.2l0.1,1.9c-0.5,0.2-1.3,0.4-2.3,0.4
			c-1.2,0-2.1-0.4-2.8-1.1c-0.7-0.8-1-2-1-3.7v-7.7h-2.2v-1.9h2.2v-3.4L193.9,37.9z"/>
		<path d="M203.3,37.9c0,0.9-0.6,1.6-1.6,1.6c-0.9,0-1.5-0.7-1.5-1.6c0-0.9,0.7-1.6,1.6-1.6C202.7,36.3,203.3,37,203.3,37.9z
			 M200.5,55.9v-14h2.5v14H200.5z"/>
		<path d="M208.2,41.9l2.8,7.9c0.5,1.3,0.8,2.5,1.1,3.6h0.1c0.3-1.2,0.7-2.3,1.2-3.6l2.7-7.9h2.7l-5.5,14h-2.4l-5.3-14H208.2z"/>
		<path d="M222.7,49.4c0,3.4,2.2,4.9,4.8,4.9c1.8,0,2.9-0.3,3.9-0.7l0.4,1.8c-0.9,0.4-2.5,0.9-4.7,0.9c-4.3,0-6.9-2.9-6.9-7.1
			c0-4.3,2.5-7.6,6.6-7.6c4.6,0,5.8,4,5.8,6.6c0,0.5,0,0.9-0.1,1.2H222.7z M230.1,47.5c0-1.6-0.7-4.1-3.5-4.1
			c-2.6,0-3.7,2.4-3.9,4.1H230.1z"/>
		<path d="M235.4,53.3c0.8,0.5,2.1,1,3.4,1c1.9,0,2.7-0.9,2.7-2.1c0-1.2-0.7-1.9-2.6-2.6c-2.5-0.9-3.7-2.3-3.7-4
			c0-2.3,1.8-4.1,4.9-4.1c1.4,0,2.7,0.4,3.4,0.9l-0.6,1.9c-0.5-0.3-1.6-0.8-2.9-0.8c-1.5,0-2.3,0.9-2.3,1.9c0,1.2,0.8,1.7,2.7,2.4
			c2.4,0.9,3.7,2.1,3.7,4.2c0,2.5-1.9,4.2-5.2,4.2c-1.5,0-3-0.4-3.9-1L235.4,53.3z"/>
	</g>
</g>
<g>
	<path d="M46.8,33.1c-0.8-1.2-1.5-2.2-2.5-3.1c-0.9-0.9-1.9-1.6-3.1-2.2c-1.1-0.6-2.3-1-3.6-1.2c-1.3-0.2-2.6-0.3-4-0.2
		c1.2-0.7,2.6-1.1,4.1-1.1c1.5,0,2.9,0.4,4.2,1c1.3,0.7,2.5,1.7,3.3,2.9C46.1,30.3,46.7,31.7,46.8,33.1z"/>
</g>
<g>
	<g>
		<path class="st0" d="M22.4,45.7c0-1.3-1-2.4-2.3-2.4c-1.3,0-2.3,1.1-2.3,2.4c0,1.3,1,2.4,2.3,2.4C21.4,48.1,22.4,47,22.4,45.7z"/>
		<ellipse class="st0" cx="16.7" cy="51.3" rx="1.8" ry="1.9"/>
		<path class="st0" d="M23.6,48.4c-1.5,0-2.8,1.3-2.8,2.8c0,1.6,1.2,2.8,2.8,2.8c1.5,0,2.8-1.3,2.8-2.8
			C26.3,49.7,25.1,48.4,23.6,48.4z"/>
		<path class="st0" d="M36.4,44.5c-0.8,0-1.4,0.6-1.4,1.4v1.4h-2.4c-0.3-2.4-1.2-4.6-2.6-6.3l1.7-1.7l1,1c0.3,0.3,0.6,0.4,1,0.4
			c0.3,0,0.7-0.1,1-0.4c0.5-0.5,0.5-1.4,0-2l-3.9-4c-0.5-0.5-1.4-0.5-1.9,0c-0.5,0.5-0.5,1.4,0,2l1,1L28.1,39
			c-1.7-1.4-3.9-2.4-6.2-2.6V34h1.4c0.8,0,1.4-0.6,1.4-1.4c0-0.8-0.6-1.4-1.4-1.4h-5.5c-0.8,0-1.4,0.6-1.4,1.4
			c0,0.8,0.6,1.4,1.4,1.4h1.4v2.4c-2.3,0.3-4.4,1.2-6.2,2.6l-1.7-1.7l1-1c0.5-0.5,0.5-1.4,0-2c-0.5-0.5-1.4-0.5-1.9,0l-3.9,4
			c-0.5,0.5-0.5,1.4,0,2c0.3,0.3,0.6,0.4,1,0.4s0.7-0.1,1-0.4l1-1l1.7,1.7c-1.4,1.8-2.3,4-2.6,6.3H6.2v-1.4c0-0.8-0.6-1.4-1.4-1.4
			c-0.8,0-1.4,0.6-1.4,1.4l0,5.7c0,0.8,0.6,1.4,1.4,1.4s1.4-0.6,1.4-1.4v-1.4h2.4c0.3,2.4,1.2,4.5,2.6,6.3l-1.7,1.7l-1-1
			c-0.5-0.5-1.4-0.5-1.9,0c-0.5,0.5-0.5,1.4,0,2l3.9,4c0.3,0.3,0.6,0.4,1,0.4c0.3,0,0.7-0.1,1-0.4c0.5-0.5,0.5-1.4,0-2l-1-1l1.7-1.7
			c1.7,1.4,3.9,2.4,6.2,2.6v2.4h-1.4c-0.8,0-1.4,0.6-1.4,1.4c0,0.8,0.6,1.4,1.4,1.4h5.5c0.8,0,1.4-0.6,1.4-1.4
			c0-0.8-0.6-1.4-1.4-1.4H22v-2.4c2.3-0.3,4.4-1.2,6.2-2.6l1.7,1.7l-1,1c-0.5,0.5-0.5,1.4,0,2c0.3,0.3,0.6,0.4,1,0.4
			c0.3,0,0.7-0.1,1-0.4l3.9-4c0.5-0.5,0.5-1.4,0-2c-0.5-0.5-1.4-0.5-1.9,0l-1,1l-1.7-1.7c1.4-1.8,2.3-4,2.6-6.3H35v1.4
			c0,0.8,0.6,1.4,1.4,1.4c0.8,0,1.4-0.6,1.4-1.4l0-5.7C37.7,45.1,37.1,44.5,36.4,44.5z M30,48.9c0,2.6-1.1,4.9-2.7,6.6c0,0,0,0,0,0
			c0,0,0,0,0,0c-1.7,1.7-4,2.8-6.5,2.8c0,0-0.1,0-0.1,0c0,0-0.1,0-0.1,0c-5.1-0.1-9.3-4.3-9.3-9.6c0,0,0,0,0-0.1c0,0,0,0,0-0.1
			c0-5.3,4.2-9.5,9.3-9.6c0,0,0,0,0,0c0,0,0,0,0,0c2.6,0,4.9,1.1,6.6,2.8c0,0,0,0,0,0c0,0,0,0,0,0c1.7,1.7,2.7,4.1,2.7,6.6
			c0,0,0,0.1,0,0.1C30,48.8,30,48.8,30,48.9z"/>
	</g>
	<g>
		<g>
			<path class="st0" d="M76.9,55.7c-0.8,0.4-2.6,0.8-5,0.8c-6.8,0-10.3-4.2-10.3-9.8c0-6.7,4.8-10.4,10.7-10.4c2.3,0,4,0.4,4.8,0.9
				l-0.9,3.5c-0.9-0.4-2.1-0.7-3.7-0.7c-3.5,0-6.2,2.1-6.2,6.5c0,3.9,2.3,6.4,6.2,6.4c1.4,0,2.8-0.3,3.7-0.6L76.9,55.7z"/>
			<path class="st0" d="M93.7,49c0,5.2-3.7,7.6-7.5,7.6c-4.1,0-7.3-2.7-7.3-7.3c0-4.6,3-7.5,7.6-7.5C90.8,41.7,93.7,44.7,93.7,49z
				 M83.4,49.1c0,2.4,1,4.3,2.9,4.3c1.7,0,2.8-1.7,2.8-4.3c0-2.1-0.8-4.2-2.8-4.2C84.2,44.8,83.4,47,83.4,49.1z"/>
			<path class="st0" d="M99.7,42l1.9,6.6c0.3,1.2,0.6,2.3,0.8,3.5h0.1c0.2-1.2,0.5-2.2,0.8-3.5l1.8-6.6h4.6l-5.3,14.2h-4.4L94.9,42
				H99.7z"/>
			<path class="st0" d="M116.3,38.1c0,1.2-0.9,2.2-2.4,2.2c-1.4,0-2.3-1-2.3-2.2c0-1.3,0.9-2.2,2.3-2.2
				C115.4,35.9,116.3,36.8,116.3,38.1z M111.8,56.2V42h4.4v14.2H111.8z"/>
			<path class="st0" d="M119.9,36.9c1.6-0.3,3.7-0.4,6-0.4c3.7,0,6.1,0.7,8,2.1c2,1.5,3.3,3.9,3.3,7.4c0,3.7-1.4,6.3-3.2,7.9
				c-2.1,1.7-5.2,2.5-9,2.5c-2.3,0-3.9-0.1-5-0.3V36.9z M124.3,52.9c0.4,0.1,1,0.1,1.5,0.1c4,0,6.6-2.2,6.6-6.9
				c0-4.1-2.4-6.2-6.2-6.2c-1,0-1.6,0.1-2,0.2V52.9z"/>
		</g>
	</g>
</g>
<g>
	<g>
		<path d="M54.5,51.6L52,51.4l-0.8-0.9c3.3-3.3,5.5-7.8,5.8-12.9c0.8-11.2-7.7-20.9-18.9-21.7c-11.2-0.8-20.9,7.7-21.7,18.9
			c-0.8,11.2,7.7,20.9,18.9,21.7c5,0.3,9.8-1.2,13.5-4l0.8,0.9l-0.2,2.5l14.6,16.6l5-4.3L54.5,51.6z M35.8,50.3
			c-7.8-0.5-13.6-7.2-13.1-15s7.2-13.6,15-13.1s13.6,7.2,13.1,15C50.3,45,43.5,50.8,35.8,50.3z"/>
	</g>
</g>
<g>
	<g>
		<path d="M92.1,61.2h-2.4v-0.4H95v0.4h-2.4v7h-0.5V61.2z"/>
		<path d="M98.7,68.2l-0.1-0.8h0c-0.3,0.4-0.8,0.9-1.7,0.9c-1.1,0-1.6-0.7-1.6-1.5c0-1.2,1.1-2,3.2-1.9v-0.1c0-0.5-0.1-1.6-1.3-1.6
			c-0.5,0-0.9,0.1-1.3,0.4l-0.2-0.4c0.5-0.3,1.1-0.5,1.5-0.5c1.5,0,1.8,1.1,1.8,2.1v2.1c0,0.4,0,0.9,0.1,1.3H98.7z M98.6,65.4
			c-1.1,0-2.7,0.1-2.7,1.4c0,0.8,0.5,1.1,1.1,1.1c0.9,0,1.4-0.5,1.6-1.1c0-0.1,0.1-0.2,0.1-0.3V65.4z"/>
		<path d="M100.6,67.5c0.3,0.2,0.7,0.4,1.2,0.4c0.8,0,1.2-0.5,1.2-1c0-0.6-0.3-0.9-1.1-1.2c-0.9-0.3-1.3-0.8-1.3-1.4
			c0-0.8,0.6-1.4,1.6-1.4c0.5,0,0.9,0.1,1.2,0.3l-0.2,0.4c-0.2-0.1-0.5-0.3-1-0.3c-0.7,0-1,0.4-1,0.9c0,0.6,0.4,0.8,1.1,1.1
			c0.9,0.3,1.4,0.8,1.4,1.6c0,0.9-0.7,1.5-1.8,1.5c-0.5,0-1-0.1-1.3-0.4L100.6,67.5z"/>
		<path d="M105.4,65.4L105.4,65.4c0.2-0.2,0.4-0.4,0.5-0.6l1.9-2h0.6l-2.1,2.2l2.4,3.1h-0.6l-2.2-2.8l-0.5,0.6v2.2h-0.5v-7.8h0.5
			V65.4z"/>
		<path d="M111.6,68.2v-0.3l0.7-0.7c2-1.9,2.9-3,2.9-4.2c0-0.8-0.3-1.6-1.6-1.6c-0.7,0-1.2,0.4-1.5,0.6l-0.2-0.4
			c0.5-0.4,1.1-0.7,1.8-0.7c1.5,0,2,1.1,2,2c0,1.4-1,2.5-2.8,4.3l-0.5,0.5v0h3.5v0.4H111.6z"/>
		<path d="M117,63.7c0-0.3,0.2-0.5,0.5-0.5c0.3,0,0.4,0.2,0.4,0.5c0,0.3-0.2,0.5-0.5,0.5C117.2,64.2,117,64,117,63.7z M117,67.8
			c0-0.3,0.2-0.5,0.5-0.5c0.3,0,0.4,0.2,0.4,0.5c0,0.3-0.2,0.5-0.5,0.5C117.2,68.3,117,68.1,117,67.8z"/>
		<path d="M126.7,67.9c-0.4,0.2-1.1,0.4-2,0.4c-1.8,0-3.5-1.1-3.5-3.8c0-2.2,1.4-3.9,3.8-3.9c0.9,0,1.5,0.2,1.7,0.3l-0.2,0.4
			c-0.4-0.2-0.9-0.3-1.5-0.3c-2,0-3.2,1.3-3.2,3.4c0,2,1.1,3.3,3.1,3.3c0.6,0,1.3-0.1,1.7-0.3L126.7,67.9z"/>
		<path d="M130.8,68.2l-0.1-0.8h0c-0.3,0.4-0.8,0.9-1.7,0.9c-1.1,0-1.6-0.7-1.6-1.5c0-1.2,1.1-2,3.2-1.9v-0.1c0-0.5-0.1-1.6-1.3-1.6
			c-0.5,0-0.9,0.1-1.3,0.4l-0.2-0.4c0.5-0.3,1.1-0.5,1.5-0.5c1.5,0,1.8,1.1,1.8,2.1v2.1c0,0.4,0,0.9,0.1,1.3H130.8z M130.7,65.4
			c-1.1,0-2.7,0.1-2.7,1.4c0,0.8,0.5,1.1,1.1,1.1c0.9,0,1.4-0.5,1.6-1.1c0-0.1,0.1-0.2,0.1-0.3V65.4z"/>
		<path d="M137.1,60.4V67c0,0.4,0,0.9,0,1.2h-0.5l0-1h0c-0.3,0.6-0.9,1.1-1.9,1.1c-1.3,0-2.3-1.1-2.3-2.7c0-1.8,1.1-2.9,2.4-2.9
			c0.9,0,1.5,0.5,1.7,0.9h0v-3.3H137.1z M136.6,65c0-0.1,0-0.3-0.1-0.5c-0.2-0.7-0.8-1.3-1.7-1.3c-1.1,0-1.9,1-1.9,2.4
			c0,1.2,0.6,2.3,1.9,2.3c0.8,0,1.5-0.5,1.7-1.4c0-0.1,0.1-0.3,0.1-0.4V65z"/>
		<path d="M139,65.5c0,1.7,0.9,2.4,2,2.4c0.8,0,1.2-0.2,1.5-0.3l0.1,0.4c-0.2,0.1-0.7,0.3-1.7,0.3c-1.5,0-2.5-1.1-2.5-2.7
			c0-1.8,1-2.9,2.4-2.9c1.7,0,2.1,1.6,2.1,2.4c0,0.1,0,0.2,0,0.3H139z M142.3,65.1c0-0.7-0.3-1.9-1.6-1.9c-1.2,0-1.7,1-1.8,1.9
			H142.3z"/>
		<path d="M144.2,64.2c0-0.5,0-0.8,0-1.3h0.5l0,1h0c0.3-0.6,1-1.1,1.8-1.1c0.5,0,1.8,0.3,1.8,2.2v3.2h-0.5v-3.1c0-1-0.4-1.8-1.5-1.8
			c-0.7,0-1.4,0.5-1.6,1.2c0,0.1-0.1,0.3-0.1,0.5v3.3h-0.5V64.2z"/>
		<path d="M153,68.2l-0.1-0.8h0c-0.3,0.4-0.8,0.9-1.7,0.9c-1.1,0-1.6-0.7-1.6-1.5c0-1.2,1.1-2,3.2-1.9v-0.1c0-0.5-0.1-1.6-1.3-1.6
			c-0.5,0-0.9,0.1-1.3,0.4l-0.2-0.4c0.5-0.3,1.1-0.5,1.5-0.5c1.5,0,1.8,1.1,1.8,2.1v2.1c0,0.4,0,0.9,0.1,1.3H153z M152.9,65.4
			c-1.1,0-2.7,0.1-2.7,1.4c0,0.8,0.5,1.1,1.1,1.1c0.9,0,1.4-0.5,1.6-1.1c0-0.1,0.1-0.2,0.1-0.3V65.4z"/>
		<path d="M154.9,67.5c0.3,0.2,0.7,0.4,1.2,0.4c0.8,0,1.2-0.5,1.2-1c0-0.6-0.3-0.9-1.1-1.2c-0.9-0.3-1.3-0.8-1.3-1.4
			c0-0.8,0.6-1.4,1.6-1.4c0.5,0,0.9,0.1,1.2,0.3l-0.2,0.4c-0.2-0.1-0.5-0.3-1-0.3c-0.7,0-1,0.4-1,0.9c0,0.6,0.4,0.8,1.1,1.1
			c0.9,0.3,1.4,0.8,1.4,1.6c0,0.9-0.7,1.5-1.8,1.5c-0.5,0-1-0.1-1.3-0.4L154.9,67.5z"/>
		<path d="M165.8,60.4V67c0,0.4,0,0.9,0,1.2h-0.5l0-1h0c-0.3,0.6-0.9,1.1-1.9,1.1c-1.3,0-2.3-1.1-2.3-2.7c0-1.8,1.1-2.9,2.4-2.9
			c0.9,0,1.5,0.5,1.7,0.9h0v-3.3H165.8z M165.3,65c0-0.1,0-0.3-0.1-0.5c-0.2-0.7-0.8-1.3-1.7-1.3c-1.1,0-1.9,1-1.9,2.4
			c0,1.2,0.6,2.3,1.9,2.3c0.8,0,1.5-0.5,1.7-1.4c0-0.1,0.1-0.3,0.1-0.4V65z"/>
		<path d="M167.7,65.5c0,1.7,0.9,2.4,2,2.4c0.8,0,1.2-0.2,1.5-0.3l0.1,0.4c-0.2,0.1-0.7,0.3-1.7,0.3c-1.5,0-2.5-1.1-2.5-2.7
			c0-1.8,1-2.9,2.4-2.9c1.7,0,2.1,1.6,2.1,2.4c0,0.1,0,0.2,0,0.3H167.7z M171.1,65.1c0-0.7-0.3-1.9-1.6-1.9c-1.2,0-1.7,1-1.8,1.9
			H171.1z"/>
		<path d="M181.6,64.7c-0.1-1.1-0.2-2.5-0.2-3.3h0c-0.3,0.8-0.6,1.7-1,2.8l-1.6,4h-0.4l-1.5-3.9c-0.4-1.2-0.7-2-1-2.9h0
			c0,0.9-0.1,2.2-0.2,3.4l-0.2,3.4h-0.5l0.5-7.4h0.6l1.6,4.3c0.3,0.9,0.6,1.7,0.8,2.4h0c0.2-0.7,0.5-1.4,0.8-2.4l1.7-4.3h0.6
			l0.5,7.4h-0.5L181.6,64.7z"/>
		<path d="M186.8,68.2l-0.1-0.8h0c-0.3,0.4-0.8,0.9-1.7,0.9c-1.1,0-1.6-0.7-1.6-1.5c0-1.2,1.1-2,3.2-1.9v-0.1c0-0.5-0.1-1.6-1.3-1.6
			c-0.5,0-0.9,0.1-1.3,0.4l-0.2-0.4c0.5-0.3,1.1-0.5,1.5-0.5c1.5,0,1.8,1.1,1.8,2.1v2.1c0,0.4,0,0.9,0.1,1.3H186.8z M186.7,65.4
			c-1.1,0-2.7,0.1-2.7,1.4c0,0.8,0.5,1.1,1.1,1.1c0.9,0,1.4-0.5,1.6-1.1c0-0.1,0.1-0.2,0.1-0.3V65.4z"/>
		<path d="M188.9,64.5c0-0.5,0-1.1,0-1.6h0.5l0,1.1h0c0.2-0.7,0.8-1.2,1.5-1.2c0.1,0,0.1,0,0.2,0v0.5c-0.1,0-0.2,0-0.3,0
			c-0.7,0-1.2,0.6-1.4,1.5c0,0.2,0,0.3,0,0.5v2.9h-0.5V64.5z"/>
		<path d="M192.7,65.4L192.7,65.4c0.2-0.2,0.4-0.4,0.5-0.6l1.9-2h0.6l-2.1,2.2l2.4,3.1h-0.6l-2.2-2.8l-0.5,0.6v2.2h-0.5v-7.8h0.5
			V65.4z"/>
		<path d="M201.3,65.5c0,2-1.4,2.8-2.5,2.8c-1.4,0-2.4-1.1-2.4-2.7c0-1.8,1.2-2.8,2.5-2.8C200.3,62.8,201.3,63.9,201.3,65.5z
			 M196.9,65.6c0,1.3,0.8,2.3,1.9,2.3c1.1,0,2-1,2-2.4c0-1-0.5-2.3-1.9-2.3C197.5,63.2,196.9,64.4,196.9,65.6z"/>
		<path d="M202.5,62.9l1.2,3.3c0.2,0.5,0.4,1,0.5,1.4h0c0.1-0.4,0.3-0.9,0.5-1.4l1.3-3.3h0.6l-2.1,5.3H204l-2.1-5.3H202.5z"/>
	</g>
</g>
</svg>
